<svg xmlns="http://www.w3.org/2000/svg" viewBox="0 0 3333 3333"><defs><style>.cls-1{fill:#fff;fill-rule:evenodd;}</style></defs><title>Behance</title><g id="Behance"><path class="cls-1" d="M1273.5,1080.5q82.5,0,150,15c45,9,84,26,116,47,32,22,57,51,75,88,18,36,26,81,26,135,0,58-13,106-40,145s-65,70-117,95c71,20,123,56,158,107s52,113,52,185c0,58-11,109-34,151-23,43-53,77-91,104s-82,47-131,60-99,19-150,19h-558v-1151h544Zm393-1081c460,0,877,187,1179,488,302,302,488,718,488,1179,0,460-187,877-488,1179-302,302-718,488-1179,488-460,0-877-187-1179-488-302-302-488-718-488-1179,0-460,187-877,488-1179C789.5,185.5,1205.5-.5,1666.5-.5Zm1093,573c-280-280-666-453-1093-453s-814,173-1093,453c-280,280-453,666-453,1093s173,814,453,1093c280,280,666,453,1093,453s814-173,1093-453c280-280,453-666,453-1093S3039.5,851.5,2759.5,572.5Zm-808,600h467v114h-467Zm104,858c34,34,84,50,148,50,46,0,86-12,119-35s53-48,61-74h202c-33,100-81,172-149,215-66,43-147,65-241,65-66,0-125-11-178-31-53-21-97-51-134-90a415.89,415.89,0,0,1-85-139c-20-54-30-113-30-178,0-62,10-121,31-174,21-54,49-100,87-140q57-58.5,135-93c52-23,110-34,174-34,70,0,132,14,185,41a366,366,0,0,1,130,110c34,46,58,99,73,158s20,121,16,186h-602c0,65,22,128,57,161Zm263-438c-27-30-73-46-129-46-37,0-67,6-91,19a179.19,179.19,0,0,0-58,46,159.86,159.86,0,0,0-31,59c-6,20-9,39-11,55h373c-5-58-26-102-53-132Zm-1078-48c45,0,82-11,111-32s43-56,43-105c0-27-5-49-14-66-10-17-23-31-39-40a138.28,138.28,0,0,0-56-20,349.3,349.3,0,0,0-65-6h-237v269Zm14,490c25,0,49-2,71-7q34.5-7.5,60-24a114.9,114.9,0,0,0,41-46c10-19,15-44,15-74,0-59-17-102-50-127s-77-38-132-38h-275v317h270Z"/></g></svg>