<svg id="Linkedin" xmlns="http://www.w3.org/2000/svg" viewBox="0 0 3333 3333"><defs><style>.cls-1{fill:#fff;fill-rule:evenodd;}</style></defs><title>Linkedin</title><path class="cls-1" d="M1464.5,1353.5h322v165h5c45-81,155-165,318-165,340,0,403,212,403,488v561h-336v-498c0-119-2-271-175-271-175,0-202,129-202,263v506h-336v-1049Zm202-1354c460,0,877,187,1179,488,302,302,488,718,488,1179,0,460-187,877-488,1179-302,302-718,488-1179,488-460,0-877-187-1179-488-302-302-488-718-488-1179,0-460,187-877,488-1179C789.5,185.5,1205.5-.5,1666.5-.5Zm1093,573c-280-280-666-453-1093-453s-814,173-1093,453c-280,280-453,666-453,1093s173,814,453,1093c280,280,666,453,1093,453s814-173,1093-453c280-280,453-666,453-1093S3039.5,851.5,2759.5,572.5Zm-1528,490a175,175,0,1,1-175-175A174.55,174.55,0,0,1,1231.5,1062.5Zm-350,291h350v1049h-350Z"/></svg>