<?xml version="1.0" encoding="utf-8"?>
<!-- Generator: Adobe Illustrator 23.0.6, SVG Export Plug-In . SVG Version: 6.00 Build 0)  -->
<svg version="1.1" id="Layer_1" xmlns="http://www.w3.org/2000/svg" xmlns:xlink="http://www.w3.org/1999/xlink" x="0px" y="0px"
	 viewBox="0 0 57 31.9" style="enable-background:new 0 0 57 31.9;" xml:space="preserve">
<style type="text/css">
	.st0{fill:#4A90E2;}
</style>
<path class="st0" d="M25.3,5.9c-0.1-0.2,13.5-7,18.6-5.7c3.8,0.9,2.3,4.1,0,4C34.3,3.6,25.4,6,25.3,5.9z"/>
<path class="st0" d="M14,16.3c-0.4-0.3,4-5.8,12.4-7.5c3.9-0.8,9.8-0.6,16.7-1.5c2.6-0.3,5.4-1.1,7.6-2.1c3.3-1.6,6.1-4.7,6.3-4.5
	c0.2,0.2-4.1,8.8-15.6,10.2c-6.2,0.7-12.9,0.2-16.7,0.6C17.6,12.2,14.2,16.5,14,16.3z"/>
<path class="st0" d="M0,31.9c0.2,0.9,34.8-19.7,35.8-11.2c0.4,4-6.9,3.6-6.9,4.1c0,0.5,13.1,1.5,11.9-5.7
	c-1.1-6.3-11.5-4.4-18.2-1.7S-0.1,31.3,0,31.9z"/>
</svg>
