<svg xmlns="http://www.w3.org/2000/svg" viewBox="0 0 3333 3333"><defs><style>.cls-1{fill:#fff;}</style></defs><title>Vimeo</title><g id="Vimeo"><path class="cls-1" d="M1666.5,0c460.18,0,876.81,186.53,1178.39,488.11S3333,1206.32,3333,1666.5s-186.53,876.81-488.11,1178.39S2126.68,3333,1666.5,3333,789.69,3146.47,488.11,2844.89,0,2126.68,0,1666.5,186.53,789.69,488.11,488.11,1206.32,0,1666.5,0Zm854.28,1268.42q-11.59,249.39-348.61,683.41-348.62,452.74-590,453.14-149.14,0-252.76-275.78-69-252.89-137.93-505.73-76.61-276-164.63-275.78c-12.74,0-57.48,27-134.19,80.43l-80.45-103.52c84.46-72.14,167.85-147.95,248.72-221.24q168.73-145.68,253.43-153.65,199.33-19.07,245.68,272.79,49.55,315,69.14,391.7,57.54,261.32,126.51,261.39,53.54,0,161.24-169.7,107.17-169.2,115.17-258.09c10.38-97.43-28-146.58-115.17-146.58-41,0-83.11,9.4-126.52,28.1q126.09-412.68,481.41-401,263,7,248.12,341.26l.16-.1.66-1.09ZM2759,574C2479.41,294.43,2093.15,121.5,1666.5,121.5S853.59,294.43,574,574,121.5,1239.85,121.5,1666.5,294.43,2479.41,574,2759,1239.85,3211.5,1666.5,3211.5,2479.41,3038.57,2759,2759,3211.5,2093.15,3211.5,1666.5,3038.57,853.59,2759,574Z"/></g></svg>